<svg width="1659" height="352" viewBox="0 0 1659 352" fill="none" xmlns="http://www.w3.org/2000/svg">
<rect width="1659" height="352" fill="white"/>
<path d="M228.756 133.656C228.756 144.828 227.571 154.773 225.201 163.49C222.916 172.123 219.658 179.656 215.426 186.088C211.194 192.52 206.031 197.979 199.938 202.465C193.928 206.951 187.2 210.548 179.752 213.256C172.389 215.964 164.348 217.953 155.631 219.223C146.998 220.408 137.9 221 128.336 221H38.3262V46.5664H128.082C142.385 46.5664 155.673 47.9629 167.945 50.7559C180.217 53.5488 190.839 58.3307 199.811 65.1016C208.867 71.7878 215.934 80.7168 221.012 91.8887C226.174 103.061 228.756 116.983 228.756 133.656ZM212.379 133.656C212.379 124.177 211.448 115.798 209.586 108.52C207.724 101.241 205.058 94.9355 201.588 89.6035C198.118 84.1868 193.886 79.6589 188.893 76.0195C183.899 72.3802 178.271 69.4603 172.008 67.2598C165.745 64.9746 158.932 63.3665 151.568 62.4355C144.205 61.5046 136.376 61.0391 128.082 61.0391H54.1953V206.4H128.082C140.523 206.4 151.907 205.3 162.232 203.1C172.558 200.814 181.402 196.921 188.766 191.42C196.214 185.834 202.011 178.386 206.158 169.076C210.305 159.682 212.379 147.875 212.379 133.656ZM450.797 211.859C443.688 214.06 437.086 215.964 430.992 217.572C424.898 219.096 418.889 220.323 412.965 221.254C407.04 222.27 400.989 222.989 394.811 223.412C388.717 223.92 381.988 224.174 374.625 224.174C357.529 224.174 342.083 222.1 328.287 217.953C314.492 213.806 302.727 207.882 292.994 200.18C283.346 192.393 275.898 182.999 270.65 171.996C265.403 160.993 262.779 148.637 262.779 134.926C262.779 121.638 265.276 109.451 270.27 98.3633C275.348 87.276 282.415 77.7546 291.471 69.7988C300.527 61.8431 311.36 55.6647 323.971 51.2637C336.581 46.8626 350.504 44.6621 365.738 44.6621C381.565 44.6621 395.657 46.778 408.014 51.0098C420.37 55.2415 430.781 61.293 439.244 69.1641C447.708 77.0352 454.14 86.599 458.541 97.8555C462.942 109.027 465.143 121.638 465.143 135.688V139.623H279.156C280.087 150.456 282.796 160.232 287.281 168.949C291.767 177.667 298.115 185.072 306.324 191.166C314.618 197.26 324.775 201.957 336.793 205.258C348.896 208.474 362.988 210.082 379.068 210.082C385.924 210.082 392.864 209.617 399.889 208.686C406.913 207.755 413.642 206.527 420.074 205.004C426.507 203.396 432.389 201.618 437.721 199.672C443.053 197.641 447.411 195.567 450.797 193.451V211.859ZM449.527 125.785C448.935 116.898 446.946 108.435 443.561 100.395C440.175 92.2695 435.097 85.1178 428.326 78.9395C421.64 72.7611 413.092 67.8522 402.682 64.2129C392.356 60.5736 379.957 58.7539 365.484 58.7539C351.858 58.7539 339.924 60.5736 329.684 64.2129C319.443 67.8522 310.768 72.7611 303.658 78.9395C296.549 85.0332 290.963 92.1426 286.9 100.268C282.838 108.308 280.257 116.814 279.156 125.785H449.527ZM597.555 221H573.814L486.725 46.5664H504.498L586.129 210.082L667.76 46.5664H685.406L597.555 221ZM928.648 133.91C928.648 149.568 925.813 163.109 920.143 174.535C914.472 185.876 906.686 195.271 896.783 202.719C886.881 210.082 875.201 215.541 861.744 219.096C848.287 222.65 833.772 224.428 818.199 224.428C802.542 224.428 787.942 222.65 774.4 219.096C760.859 215.541 749.094 210.082 739.107 202.719C729.12 195.271 721.292 185.876 715.621 174.535C709.951 163.109 707.115 149.568 707.115 133.91C707.115 123.5 708.427 114.063 711.051 105.6C713.674 97.0514 717.356 89.4342 722.096 82.748C726.835 75.9772 732.548 70.1374 739.234 65.2285C746.005 60.3197 753.495 56.2572 761.705 53.041C769.999 49.7402 778.886 47.3281 788.365 45.8047C797.844 44.1966 807.789 43.3926 818.199 43.3926C833.772 43.3926 848.287 45.1699 861.744 48.7246C875.201 52.2793 886.881 57.7806 896.783 65.2285C906.686 72.5918 914.472 81.9863 920.143 93.4121C925.813 104.753 928.648 118.253 928.648 133.91ZM912.271 133.91C912.271 121.553 910.24 110.635 906.178 101.156C902.2 91.6771 896.275 83.7214 888.404 77.2891C880.533 70.7721 870.715 65.8633 858.951 62.5625C847.271 59.1771 833.688 57.4844 818.199 57.4844C802.711 57.4844 789.042 59.1771 777.193 62.5625C765.429 65.9479 755.569 70.8991 747.613 77.416C739.658 83.8483 733.648 91.8464 729.586 101.41C725.523 110.889 723.492 121.723 723.492 133.91C723.492 146.267 725.523 157.185 729.586 166.664C733.648 176.143 739.658 184.141 747.613 190.658C755.569 197.09 765.429 201.999 777.193 205.385C789.042 208.686 802.711 210.336 818.199 210.336C833.688 210.336 847.271 208.686 858.951 205.385C870.715 201.999 880.533 197.09 888.404 190.658C896.275 184.141 902.2 176.143 906.178 166.664C910.24 157.185 912.271 146.267 912.271 133.91ZM1144.09 221V105.854C1144.09 96.2051 1142.78 88.2917 1140.15 82.1133C1137.61 75.8503 1133.93 70.8991 1129.11 67.2598C1124.37 63.6204 1118.57 61.0814 1111.71 59.6426C1104.86 58.2038 1097.16 57.4844 1088.61 57.4844C1078.71 57.4844 1068.97 58.7116 1059.41 61.166C1049.93 63.5358 1040.96 66.5827 1032.5 70.3066C1024.03 73.946 1016.25 78.0085 1009.14 82.4941C1002.03 86.9798 996.018 91.2962 991.109 95.4434V221H975.24V46.5664H991.109V77.1621C997.034 73.4382 1003.55 69.5449 1010.66 65.4824C1017.85 61.3353 1025.56 57.569 1033.77 54.1836C1042.06 50.7135 1050.9 47.8783 1060.3 45.6777C1069.69 43.4772 1079.6 42.377 1090.01 42.377C1101.77 42.377 1112.01 43.8158 1120.73 46.6934C1129.53 49.4863 1136.81 53.5065 1142.56 58.7539C1148.4 63.9167 1152.76 70.222 1155.64 77.6699C1158.52 85.0332 1159.96 93.2852 1159.96 102.426V221H1144.09Z" fill="#0F0E0E"/>
<path d="M1094.75 328H1087.84L1080.61 305.92H1080.16L1072.67 328H1065.7L1053.28 286.912H1059.81L1060.51 291.328L1069.34 320.96H1069.86L1077.92 297.152L1074.66 286.912H1081.38L1082.4 291.968L1091.36 320.96H1091.87L1101.79 291.712L1102.82 286.912H1108.96L1094.75 328ZM1135.3 322.88L1135.74 323.328L1135.23 328H1114.69L1114.94 318.4L1114.69 295.936H1135.42L1135.81 296.448L1135.36 301.12L1127.23 300.8L1120.83 300.864L1120.7 309.184L1126.85 309.248L1132.42 309.056L1132.74 309.568L1132.35 314.304L1126.34 314.112L1120.64 314.176L1120.58 317.824L1120.7 323.072L1126.66 323.136L1135.3 322.88ZM1169.11 328H1162.9L1162.07 324.032L1160.92 320.512L1153.75 320.448L1147.35 320.512L1146.13 323.712L1145.24 328H1139.16L1151.12 295.936H1158.29L1169.11 328ZM1159.32 315.712L1154.77 301.696H1154.32L1149.14 315.712L1154.2 315.776L1159.32 315.712ZM1192.89 315.2C1195.36 318.912 1198.16 322.688 1201.27 326.528L1201.21 327.296C1198.99 327.936 1197.05 328.32 1195.38 328.448L1194.42 327.872C1191.31 322.837 1189.11 319.168 1187.83 316.864L1182.2 316.928V317.824L1182.46 328H1176.31L1176.57 318.4L1176.31 295.936L1188.47 295.872C1191.93 295.872 1194.59 296.704 1196.47 298.368C1198.39 299.989 1199.35 302.293 1199.35 305.28C1199.35 307.371 1198.78 309.269 1197.62 310.976C1196.51 312.683 1194.94 314.091 1192.89 315.2ZM1182.26 312L1187.83 312.192C1191.2 311.211 1192.89 309.099 1192.89 305.856C1192.89 304.107 1192.38 302.827 1191.35 302.016C1190.33 301.163 1188.77 300.693 1186.68 300.608L1182.46 300.736L1182.26 312ZM1256.5 328H1249.59L1242.36 305.92H1241.91L1234.42 328H1227.45L1215.03 286.912H1221.56L1222.26 291.328L1231.09 320.96H1231.61L1239.67 297.152L1236.41 286.912H1243.13L1244.15 291.968L1253.11 320.96H1253.62L1263.54 291.712L1264.57 286.912H1270.71L1256.5 328ZM1303.96 317.824L1304.21 328H1298.07L1298.26 318.4L1298.2 314.56L1289.94 314.496L1282.39 314.624L1282.33 317.824L1282.58 328H1276.44L1276.69 318.4L1276.44 295.936H1282.65L1282.45 309.248L1290.39 309.376L1298.2 309.312L1298.07 295.936H1304.28L1303.96 317.824ZM1327.06 295.488C1331.75 295.488 1335.38 296.875 1337.94 299.648C1340.54 302.379 1341.84 306.24 1341.84 311.232C1341.84 316.779 1340.45 321.045 1337.68 324.032C1334.95 327.019 1331.05 328.512 1325.97 328.512C1321.23 328.512 1317.59 327.104 1315.03 324.288C1312.47 321.472 1311.19 317.483 1311.19 312.32C1311.19 306.944 1312.55 302.805 1315.28 299.904C1318.05 296.96 1321.98 295.488 1327.06 295.488ZM1326.48 300.544C1323.41 300.544 1321.15 301.419 1319.7 303.168C1318.29 304.875 1317.59 307.669 1317.59 311.552C1317.59 315.861 1318.29 318.933 1319.7 320.768C1321.11 322.603 1323.35 323.52 1326.42 323.52C1329.53 323.52 1331.81 322.667 1333.27 320.96C1334.72 319.211 1335.44 316.373 1335.44 312.448C1335.44 308.181 1334.74 305.131 1333.33 303.296C1331.92 301.461 1329.64 300.544 1326.48 300.544ZM1372.35 319.04L1372.61 328H1366.47L1366.79 319.04L1366.72 317.248L1355.84 295.936H1362.43L1363.14 297.984L1369.54 310.72H1369.99L1377.03 298.24L1377.92 295.936H1384.39L1372.42 317.12L1372.35 319.04ZM1401.56 295.488C1406.25 295.488 1409.88 296.875 1412.44 299.648C1415.04 302.379 1416.34 306.24 1416.34 311.232C1416.34 316.779 1414.95 321.045 1412.18 324.032C1409.45 327.019 1405.55 328.512 1400.47 328.512C1395.73 328.512 1392.09 327.104 1389.53 324.288C1386.97 321.472 1385.69 317.483 1385.69 312.32C1385.69 306.944 1387.05 302.805 1389.78 299.904C1392.55 296.96 1396.48 295.488 1401.56 295.488ZM1400.98 300.544C1397.91 300.544 1395.65 301.419 1394.2 303.168C1392.79 304.875 1392.09 307.669 1392.09 311.552C1392.09 315.861 1392.79 318.933 1394.2 320.768C1395.61 322.603 1397.85 323.52 1400.92 323.52C1404.03 323.52 1406.31 322.667 1407.77 320.96C1409.22 319.211 1409.94 316.373 1409.94 312.448C1409.94 308.181 1409.24 305.131 1407.83 303.296C1406.42 301.461 1404.14 300.544 1400.98 300.544ZM1449.66 312.256L1449.6 316.992C1449.64 320.619 1448.49 323.435 1446.14 325.44C1443.79 327.445 1440.47 328.448 1436.16 328.448C1431.89 328.448 1428.65 327.467 1426.43 325.504C1424.21 323.499 1423.14 320.661 1423.23 316.992L1423.29 312.064L1423.1 295.936H1429.31L1428.99 316.032C1428.95 320.896 1431.42 323.328 1436.41 323.328C1438.89 323.328 1440.76 322.731 1442.04 321.536C1443.32 320.299 1443.94 318.464 1443.9 316.032L1443.64 295.936H1449.85L1449.66 312.256ZM1495.67 328H1489.46L1488.63 324.032L1487.48 320.512L1480.31 320.448L1473.91 320.512L1472.7 323.712L1471.8 328H1465.72L1477.69 295.936H1484.86L1495.67 328ZM1485.88 315.712L1481.34 301.696H1480.89L1475.7 315.712L1480.76 315.776L1485.88 315.712ZM1519.45 315.2C1521.93 318.912 1524.72 322.688 1527.83 326.528L1527.77 327.296C1525.55 327.936 1523.61 328.32 1521.95 328.448L1520.99 327.872C1517.87 322.837 1515.67 319.168 1514.39 316.864L1508.76 316.928V317.824L1509.02 328H1502.87L1503.13 318.4L1502.87 295.936L1515.03 295.872C1518.49 295.872 1521.16 296.704 1523.03 298.368C1524.95 299.989 1525.91 302.293 1525.91 305.28C1525.91 307.371 1525.34 309.269 1524.19 310.976C1523.08 312.683 1521.5 314.091 1519.45 315.2ZM1508.83 312L1514.39 312.192C1517.77 311.211 1519.45 309.099 1519.45 305.856C1519.45 304.107 1518.94 302.827 1517.91 302.016C1516.89 301.163 1515.33 300.693 1513.24 300.608L1509.02 300.736L1508.83 312ZM1555.98 322.88L1556.43 323.328L1555.92 328H1535.37L1535.63 318.4L1535.37 295.936H1556.11L1556.49 296.448L1556.05 301.12L1547.92 300.8L1541.52 300.864L1541.39 309.184L1547.53 309.248L1553.1 309.056L1553.42 309.568L1553.04 314.304L1547.02 314.112L1541.33 314.176L1541.26 317.824L1541.39 323.072L1547.34 323.136L1555.98 322.88Z" fill="#048A81"/>
</svg>
